<svg width="94" height="37" viewBox="0 0 94 37" fill="none" xmlns="http://www.w3.org/2000/svg">
<path fill-rule="evenodd" clip-rule="evenodd" d="M53.1791 25.1331C53.1791 20.0393 49.4325 12.2587 34.8376 14.2738L37.0744 7.72466H51.6133L54.2974 0H52.8435C51.5015 1.73525 49.3206 1.73525 45.6859 1.73525H36.3474L30.7555 17.8003L31.7061 18.8638C42.2748 16.5129 45.0708 22.7262 45.0708 27.0363C45.0708 31.5703 42.3308 34.705 38.696 34.705C36.3349 34.705 35.3011 33.3764 34.3527 32.1576C33.5492 31.1248 32.8069 30.171 31.3706 30.171C29.9726 30.171 28.8543 31.0666 28.8543 32.5219C28.8543 35.8245 34.8376 37 38.4723 37C47.028 37 53.1791 31.5144 53.1791 25.1331ZM26.5616 2.57489L25.9465 1.73525H5.14456L5.03272 0.783661H3.41106L0 11.9228H1.62165C3.41106 7.89259 5.2564 7.72466 9.11481 7.72466H20.5782C13.5324 17.8563 8.16419 27.8759 5.31231 37H10.9601C13.4765 26.1967 18.3974 14.3858 26.5616 2.57489ZM85.724 1.59531H89.8061L64.8102 36.8601H61.1755L82.7603 6.68911C79.9643 8.48033 76.721 8.42436 73.5336 7.24887V7.6407C73.5336 13.1263 69.6752 18.7239 63.9714 18.7239C60.0571 18.7239 57.5967 16.093 57.5967 12.1188C57.5967 6.68911 61.9584 1.31543 67.718 1.31543C69.6752 1.31543 71.1291 1.93116 72.1356 3.10666C77.8394 6.63313 80.6353 7.52874 85.724 1.59531ZM70.9613 7.80862C70.9613 11.2231 68.5009 16.4849 65.4253 16.4849C63.6919 16.4849 62.7412 14.5817 62.7412 12.3986C62.7412 9.26399 64.6984 3.61044 67.8858 3.61044C69.5634 3.61044 70.9613 5.34569 70.9613 7.80862ZM88.2403 19.5635C92.0428 19.5635 94 22.0265 94 25.8888C94 31.3744 90.1416 36.972 84.4938 36.972C80.5794 36.972 78.119 34.3411 78.119 30.3669C78.119 24.9372 82.4807 19.5635 88.2403 19.5635ZM91.4836 26.0567C91.4836 29.4713 89.0232 34.733 85.9476 34.733C84.1582 34.733 83.2076 32.8298 83.2076 30.6467C83.2076 27.5121 85.1648 21.8585 88.4081 21.8585C90.0857 21.8585 91.4836 23.5938 91.4836 26.0567Z" fill="#393939"/>
</svg>
