<svg width="21" height="21" viewBox="0 0 21 21" fill="none" xmlns="http://www.w3.org/2000/svg">
<path fill-rule="evenodd" clip-rule="evenodd" d="M16.7187 15.2931L20.5543 19.1006C20.9416 19.5016 20.9416 20.1377 20.5543 20.5387C20.3602 20.7346 20.0959 20.8448 19.8203 20.8448C19.5446 20.8448 19.2803 20.7346 19.0862 20.5387L15.2816 16.7312C11.427 19.825 5.82821 19.3642 2.53056 15.6816C-0.767082 11.999 -0.61342 6.37917 2.88052 2.88257C6.37447 -0.614027 11.99 -0.767806 15.6698 2.53234C19.3496 5.83249 19.8101 11.4355 16.7187 15.2931ZM2.24459 9.48867C2.24459 13.4886 5.48473 16.7312 9.48165 16.7312C11.401 16.7312 13.2418 15.9682 14.599 14.6099C15.9562 13.2517 16.7187 11.4095 16.7187 9.48867C16.7187 5.48872 13.4786 2.24612 9.48165 2.24612C5.48473 2.24612 2.24459 5.48872 2.24459 9.48867Z" fill="#373630"/>
<path d="M20.5543 19.1006L20.6659 18.9927L20.6636 18.9904L20.5543 19.1006ZM16.7187 15.2931L16.5976 15.196L16.5103 15.3049L16.6093 15.4032L16.7187 15.2931ZM20.5543 20.5387L20.6645 20.648L20.6659 20.6465L20.5543 20.5387ZM19.0862 20.5387L19.1964 20.4295L19.196 20.429L19.0862 20.5387ZM15.2816 16.7312L15.3914 16.6215L15.293 16.5231L15.1845 16.6102L15.2816 16.7312ZM2.53056 15.6816L2.64616 15.5781L2.53056 15.6816ZM2.88052 2.88257L2.99029 2.99225L2.88052 2.88257ZM15.6698 2.53234L15.7734 2.41682L15.6698 2.53234ZM20.6636 18.9904L16.828 15.1829L16.6093 15.4032L20.445 19.2107L20.6636 18.9904ZM20.6659 20.6465C21.1113 20.1854 21.1113 19.4539 20.6659 18.9928L20.4427 19.2084C20.7719 19.5493 20.7719 20.09 20.4427 20.4309L20.6659 20.6465ZM19.8203 21C20.1373 21 20.4413 20.8732 20.6645 20.648L20.4441 20.4295C20.2791 20.596 20.0545 20.6896 19.8203 20.6896V21ZM18.976 20.648C19.1992 20.8732 19.5032 21 19.8203 21V20.6896C19.586 20.6896 19.3614 20.596 19.1964 20.4295L18.976 20.648ZM15.1718 16.8409L18.9764 20.6484L19.196 20.429L15.3914 16.6215L15.1718 16.8409ZM2.41496 15.7851C5.7676 19.5291 11.4598 19.9977 15.3787 16.8522L15.1845 16.6102C11.3942 19.6524 5.88882 19.1992 2.64616 15.5781L2.41496 15.7851ZM2.77076 2.77289C-0.781402 6.32775 -0.937617 12.0412 2.41496 15.7851L2.64616 15.5781C-0.596547 11.9568 -0.445438 6.43059 2.99029 2.99225L2.77076 2.77289ZM15.7734 2.41682C12.0323 -0.938377 6.32298 -0.782026 2.77076 2.77289L2.99029 2.99225C6.42596 -0.446029 11.9478 -0.597235 15.5662 2.64786L15.7734 2.41682ZM16.8397 15.3901C19.9827 11.4683 19.5145 5.77197 15.7734 2.41682L15.5662 2.64786C19.1847 5.89302 19.6376 11.4027 16.5976 15.196L16.8397 15.3901ZM9.48165 16.576C5.57054 16.576 2.39977 13.403 2.39977 9.48867H2.08942C2.08942 13.5742 5.39892 16.8864 9.48165 16.8864V16.576ZM14.4893 14.5002C13.1611 15.8294 11.3598 16.576 9.48165 16.576V16.8864C11.4422 16.8864 13.3225 16.107 14.7088 14.7196L14.4893 14.5002ZM16.5635 9.48867C16.5635 11.3684 15.8174 13.1711 14.4893 14.5002L14.7088 14.7196C16.0951 13.3323 16.8739 11.4506 16.8739 9.48867H16.5635ZM9.48165 2.40129C13.3928 2.40129 16.5635 5.5743 16.5635 9.48867H16.8739C16.8739 5.40313 13.5644 2.09094 9.48165 2.09094V2.40129ZM2.39977 9.48867C2.39977 5.5743 5.57054 2.40129 9.48165 2.40129V2.09094C5.39892 2.09094 2.08942 5.40313 2.08942 9.48867H2.39977Z" fill="#373630"/>
</svg>
