<svg width="25" height="20" viewBox="0 0 25 20" fill="none" xmlns="http://www.w3.org/2000/svg">
<path fill-rule="evenodd" clip-rule="evenodd" d="M16.2036 7C16.2036 3.13401 13.2023 0 9.49999 0C5.79768 0 2.79637 3.13401 2.79637 7H1.76784C1.26755 7.00002 0.851576 7.40214 0.813054 7.923L0.00287298 18.923L0 19C0 19.5523 0.428759 20 0.957661 20H18.0423L18.1161 19.997C18.6434 19.9545 19.0378 19.4736 18.9971 18.923L18.1869 7.923C18.1484 7.40214 17.7324 7.00002 17.2321 7H16.2036ZM2.65463 9H16.3444L17.008 18H1.99097L2.65463 9ZM11.4152 11V13H7.58459V11H11.4152ZM4.71646 6.783C4.82772 4.1086 6.93639 2.00015 9.49997 2L9.70779 2.005C12.2689 2.12118 14.2881 4.32308 14.2883 7H4.71167L4.71646 6.783Z" fill="#373630"/>
<path d="M19 11C21.7614 11 24 8.76142 24 6C24 3.23858 21.7614 1 19 1C16.2386 1 14 3.23858 14 6C14 8.76142 16.2386 11 19 11Z" fill="#FF2400" stroke="white" stroke-width="2"/>
</svg>
