<svg width="414" height="50" viewBox="0 0 414 50" fill="none" xmlns="http://www.w3.org/2000/svg">
<path fill-rule="evenodd" clip-rule="evenodd" d="M288.011 29.6333L291.719 33.3139C292.094 33.7016 292.094 34.3165 291.719 34.7042C291.532 34.8935 291.276 35 291.01 35C290.743 35 290.488 34.8935 290.3 34.7042L286.622 31.0235C282.896 34.0143 277.484 33.5687 274.296 30.0089C271.108 26.4491 271.257 21.0165 274.634 17.6365C278.012 14.2564 283.44 14.1078 286.998 17.2979C290.555 20.4881 291 25.9044 288.011 29.6333ZM274.02 24.0224C274.02 27.889 277.152 31.0236 281.016 31.0236C282.871 31.0236 284.65 30.2859 285.962 28.973C287.274 27.66 288.011 25.8792 288.011 24.0224C288.011 20.1558 284.879 17.0212 281.016 17.0212C277.152 17.0212 274.02 20.1558 274.02 24.0224Z" fill="#373630"/>
<path d="M291.719 33.3139L291.827 33.2097L291.825 33.2075L291.719 33.3139ZM288.011 29.6333L287.894 29.5395L287.81 29.6448L287.906 29.7398L288.011 29.6333ZM291.719 34.7042L291.826 34.8098L291.827 34.8084L291.719 34.7042ZM290.3 34.7042L290.407 34.5986L290.406 34.5981L290.3 34.7042ZM286.622 31.0235L286.728 30.9175L286.633 30.8224L286.528 30.9066L286.622 31.0235ZM274.296 30.0089L274.408 29.9088L274.296 30.0089ZM274.634 17.6365L274.741 17.7425L274.634 17.6365ZM286.998 17.2979L287.098 17.1863L286.998 17.2979ZM291.825 33.2075L288.117 29.5269L287.906 29.7398L291.614 33.4204L291.825 33.2075ZM291.827 34.8084C292.258 34.3626 292.258 33.6555 291.827 33.2097L291.611 33.4181C291.93 33.7477 291.93 34.2704 291.611 34.5999L291.827 34.8084ZM291.01 35.15C291.316 35.15 291.61 35.0275 291.826 34.8097L291.613 34.5986C291.453 34.7595 291.236 34.85 291.01 34.85V35.15ZM290.193 34.8097C290.409 35.0275 290.703 35.15 291.01 35.15V34.85C290.783 34.85 290.566 34.7595 290.407 34.5986L290.193 34.8097ZM286.516 31.1296L290.194 34.8102L290.406 34.5981L286.728 30.9175L286.516 31.1296ZM274.184 30.109C277.425 33.7282 282.928 34.1811 286.716 31.1405L286.528 30.9066C282.864 33.8474 277.543 33.4093 274.408 29.9088L274.184 30.109ZM274.528 17.5305C271.095 20.9668 270.944 26.4898 274.184 30.109L274.408 29.9088C271.273 26.4083 271.419 21.0663 274.741 17.7425L274.528 17.5305ZM287.098 17.1863C283.481 13.9429 277.962 14.094 274.528 17.5305L274.741 17.7425C278.062 14.4188 283.4 14.2727 286.897 17.4096L287.098 17.1863ZM288.128 29.7271C291.167 25.936 290.714 20.4296 287.098 17.1863L286.897 17.4096C290.395 20.5466 290.833 25.8727 287.894 29.5395L288.128 29.7271ZM281.016 30.8736C277.235 30.8736 274.17 27.8063 274.17 24.0224H273.87C273.87 27.9718 277.069 31.1735 281.016 31.1735V30.8736ZM285.856 28.8669C284.572 30.1518 282.831 30.8736 281.016 30.8736V31.1735C282.911 31.1735 284.728 30.4201 286.069 29.079L285.856 28.8669ZM287.861 24.0224C287.861 25.8395 287.14 27.5821 285.856 28.8669L286.069 29.079C287.409 27.7379 288.161 25.919 288.161 24.0224H287.861ZM281.016 17.1712C284.796 17.1712 287.861 20.2385 287.861 24.0224H288.161C288.161 20.073 284.962 16.8712 281.016 16.8712V17.1712ZM274.17 24.0224C274.17 20.2385 277.235 17.1712 281.016 17.1712V16.8712C277.069 16.8712 273.87 20.073 273.87 24.0224H274.17Z" fill="#373630"/>
<rect x="368" y="28.6364" width="6.36364" height="6.36364" rx="3" fill="#373630"/>
<rect x="368" y="15" width="6.36364" height="6.36364" rx="3" fill="#373630"/>
<rect x="381.636" y="28.6364" width="6.36364" height="6.36364" rx="3" fill="#373630"/>
<rect x="381.636" y="15" width="6.36364" height="6.36364" rx="3" fill="#373630"/>
<path fill-rule="evenodd" clip-rule="evenodd" d="M337.204 22C337.204 18.134 334.202 15 330.5 15C326.798 15 323.796 18.134 323.796 22H322.768C322.268 22 321.852 22.4021 321.813 22.923L321.003 33.923L321 34C321 34.5523 321.429 35 321.958 35H339.042L339.116 34.997C339.643 34.9545 340.038 34.4736 339.997 33.923L339.187 22.923C339.148 22.4021 338.732 22 338.232 22H337.204ZM323.655 24H337.344L338.008 33H322.991L323.655 24ZM332.415 26V28H328.585V26H332.415ZM325.716 21.783C325.828 19.1086 327.936 17.0002 330.5 17L330.708 17.005C333.269 17.1212 335.288 19.3231 335.288 22H325.712L325.716 21.783Z" fill="#373630"/>
<path d="M340 26C342.761 26 345 23.7614 345 21C345 18.2386 342.761 16 340 16C337.239 16 335 18.2386 335 21C335 23.7614 337.239 26 340 26Z" fill="#FF2400" stroke="white" stroke-width="2"/>
<path fill-rule="evenodd" clip-rule="evenodd" d="M26 25C26 24.4477 26.4477 24 27 24H45C45.5523 24 46 24.4477 46 25C46 25.5523 45.5523 26 45 26H27C26.4477 26 26 25.5523 26 25Z" fill="#373630"/>
<path fill-rule="evenodd" clip-rule="evenodd" d="M36.7071 15.2929C37.0976 15.6834 37.0976 16.3166 36.7071 16.7071L28.4142 25L36.7071 33.2929C37.0976 33.6834 37.0976 34.3166 36.7071 34.7071C36.3166 35.0976 35.6834 35.0976 35.2929 34.7071L26.2929 25.7071C25.9024 25.3166 25.9024 24.6834 26.2929 24.2929L35.2929 15.2929C35.6834 14.9024 36.3166 14.9024 36.7071 15.2929Z" fill="#373630"/>
</svg>
