<svg width="103" height="64" viewBox="0 0 103 64" fill="none" xmlns="http://www.w3.org/2000/svg">
<rect x="38.25" width="64" height="64" rx="32" fill="#DEDCD6"/>
<path d="M65.6252 16.2191C66.0565 15.8741 66.6858 15.944 67.0308 16.3753L79.0207 31.3628C79.0493 31.3974 79.0757 31.4339 79.0995 31.4722C79.1048 31.4808 79.1099 31.4894 79.115 31.4981C79.1289 31.5219 79.142 31.5467 79.154 31.572C79.1605 31.586 79.1665 31.5996 79.1723 31.6133C79.1824 31.6371 79.1917 31.6618 79.2 31.6869C79.2034 31.698 79.2068 31.709 79.2101 31.7201C79.2178 31.746 79.2244 31.7728 79.2299 31.7999C79.2324 31.813 79.2347 31.8254 79.2367 31.8378C79.2449 31.887 79.2494 31.9381 79.2499 31.9903L79.2458 31.9086C79.2477 31.9302 79.249 31.9519 79.2496 31.9736L79.2499 31.9903C79.25 31.9981 79.25 32.0059 79.2499 32.0137C79.2495 32.0374 79.2484 32.0614 79.2463 32.0853C79.2445 32.107 79.2421 32.1278 79.239 32.1484C79.2365 32.1643 79.2336 32.1814 79.2301 32.1983C79.2255 32.2218 79.2202 32.2441 79.2141 32.2661C79.2099 32.281 79.2054 32.296 79.2005 32.3109C79.1936 32.3326 79.1856 32.3544 79.1769 32.3758C79.1706 32.3911 79.164 32.4062 79.157 32.4213C79.1465 32.4441 79.1351 32.4664 79.1228 32.4883C79.0964 32.5354 79.0657 32.5811 79.0308 32.6247L79.1006 32.5259C79.0795 32.56 79.0563 32.5928 79.0314 32.624L67.0308 47.6247C66.6858 48.0559 66.0565 48.1259 65.6252 47.7808C65.194 47.4358 65.1241 46.8065 65.4691 46.3753L76.1529 33.019L1.00965 33.7499C0.496838 33.7549 0.0704384 33.373 0.00784775 32.8762L-1.18531e-05 32.7597C-0.00537359 32.2074 0.437974 31.7554 0.990233 31.75L76.1859 31.02L65.4691 17.6247C65.1506 17.2266 65.1857 16.6598 65.5322 16.3036L65.6252 16.2191Z" fill="#373630"/>
</svg>
