<svg width="269" height="131" viewBox="0 0 269 131" fill="none" xmlns="http://www.w3.org/2000/svg">
<path d="M117.003 21.9066C117.035 17.0714 118.961 12.4411 122.367 9.00887C125.773 5.5766 130.388 3.61559 135.223 3.54638C145.591 3.42215 154.014 12.2172 153.947 22.594L153.865 34.2545C153.852 35.9381 153.429 37.5932 152.631 39.0756C151.832 40.558 150.684 41.8227 149.285 42.7597L139.786 49.1116C138.387 50.0486 137.239 51.3134 136.44 52.7958C135.642 54.2782 135.218 55.9333 135.206 57.6169L135.123 70.6438" stroke="#373630" stroke-width="7.09" stroke-miterlimit="10"/>
<path d="M106.519 105.683C106.627 90.2711 113.666 71.8529 134.676 71.9937C157.567 72.151 162.453 90.6604 162.345 106.072" stroke="#373630" stroke-width="7.09" stroke-miterlimit="10"/>
<path d="M6.85825 130.453C7.28018 130.454 7.70138 130.418 8.11704 130.346L109.525 112.532L109.625 102.992L110.08 98.4865L5.73197 116.781C4.02991 117.073 2.49927 117.992 1.44249 119.358C0.385707 120.724 -0.120374 122.437 0.0242455 124.157C0.168865 125.878 0.953673 127.482 2.22359 128.653C3.4935 129.823 5.15617 130.474 6.88309 130.478L6.85825 130.453Z" fill="#373630"/>
<path d="M262.117 129.522C261.695 129.523 261.274 129.487 260.858 129.415L159.45 111.596L159.351 102.053L159.003 97.5467L263.268 115.846C264.97 116.138 266.501 117.058 267.557 118.424C268.614 119.79 269.12 121.503 268.976 123.225C268.831 124.946 268.046 126.551 266.776 127.721C265.506 128.892 263.844 129.543 262.117 129.547V129.522Z" fill="#373630"/>
</svg>
