<svg width="40" height="13" viewBox="0 0 40 13" fill="none" xmlns="http://www.w3.org/2000/svg">
<path d="M3.15741 12.4197H5.32393V0.302305H3.16581L0 2.52761V4.56817L3.01466 2.43524H3.15741V12.4197Z" fill="#010101"/>
<path d="M8.27853 12.4197H16.6927V10.6227H11.2092V10.4463L13.636 8.09506C15.8446 5.97053 16.5079 4.87887 16.5079 3.5017V3.47651C16.5079 1.43595 14.8117 0 12.452 0C9.92441 0 8.16097 1.57871 8.16097 3.8376L8.16936 3.86279L10.1847 3.87119L10.1931 3.8376C10.1931 2.58639 11.0581 1.73826 12.3429 1.73826C13.6025 1.73826 14.3666 2.5444 14.3666 3.66125V3.68644C14.3666 4.61855 13.9048 5.23156 12.2589 6.89424L8.27853 10.9586V12.4197Z" fill="#010101"/>
<path d="M20.2435 4.56817C21.0161 4.56817 21.5787 3.98035 21.5787 3.24138C21.5787 2.49402 21.0161 1.9146 20.2435 1.9146C19.4793 1.9146 18.9083 2.49402 18.9083 3.24138C18.9083 3.98035 19.4793 4.56817 20.2435 4.56817ZM20.2435 10.799C21.0161 10.799 21.5787 10.2196 21.5787 9.47223C21.5787 8.72487 21.0161 8.14545 20.2435 8.14545C19.4793 8.14545 18.9083 8.72487 18.9083 9.47223C18.9083 10.2196 19.4793 10.799 20.2435 10.799Z" fill="#010101"/>
<path d="M29.5213 12.4197H31.5955V10.0936H33.2246V8.305H31.5955V0.302305H28.5304C26.8845 2.80472 25.1631 5.59265 23.5928 8.32179V10.0936H29.5213V12.4197ZM25.6081 8.35538V8.22942C26.7838 6.17207 28.1861 3.92997 29.4289 2.03216H29.5549V8.35538H25.6081Z" fill="#010101"/>
<path d="M37.8334 12.4197H40V0.302305H37.8418L34.676 2.52761V4.56817L37.6907 2.43524H37.8334V12.4197Z" fill="#010101"/>
</svg>
