<svg width="21" height="21" viewBox="0 0 21 21" fill="none" xmlns="http://www.w3.org/2000/svg">
<path fill-rule="evenodd" clip-rule="evenodd" d="M16.7185 15.2931L20.5542 19.1006C20.9415 19.5016 20.9415 20.1377 20.5542 20.5388C20.36 20.7346 20.0958 20.8448 19.8201 20.8448C19.5445 20.8448 19.2802 20.7346 19.0861 20.5388L15.2815 16.7312C11.4268 19.8251 5.82808 19.3642 2.53044 15.6816C-0.767208 11.999 -0.613546 6.37919 2.8804 2.88259C6.37434 -0.614004 11.9899 -0.767783 15.6697 2.53237C19.3495 5.83252 19.81 11.4355 16.7185 15.2931ZM2.24447 9.48869C2.24447 13.4886 5.48461 16.7312 9.48152 16.7312C11.4009 16.7312 13.2417 15.9682 14.5989 14.6099C15.9561 13.2517 16.7186 11.4095 16.7186 9.48869C16.7186 5.48874 13.4784 2.24614 9.48152 2.24614C5.48461 2.24614 2.24447 5.48874 2.24447 9.48869Z" fill="#373630"/>
<path d="M20.5542 19.1006L20.6658 18.9928L20.6635 18.9905L20.5542 19.1006ZM16.7185 15.2931L16.5974 15.196L16.5102 15.3049L16.6092 15.4032L16.7185 15.2931ZM20.5542 20.5388L20.6644 20.648L20.6658 20.6466L20.5542 20.5388ZM19.0861 20.5388L19.1963 20.4295L19.1958 20.4291L19.0861 20.5388ZM15.2815 16.7312L15.3912 16.6216L15.2929 16.5231L15.1843 16.6102L15.2815 16.7312ZM2.53044 15.6816L2.64604 15.5781L2.53044 15.6816ZM2.8804 2.88259L2.99016 2.99228L2.8804 2.88259ZM15.6697 2.53237L15.7733 2.41685L15.6697 2.53237ZM20.6635 18.9905L16.8279 15.183L16.6092 15.4032L20.4449 19.2107L20.6635 18.9905ZM20.6658 20.6466C21.1112 20.1854 21.1112 19.454 20.6658 18.9928L20.4426 19.2084C20.7718 19.5493 20.7718 20.0901 20.4426 20.431L20.6658 20.6466ZM19.8201 21C20.1372 21 20.4411 20.8732 20.6644 20.648L20.444 20.4295C20.279 20.596 20.0544 20.6896 19.8201 20.6896V21ZM18.9759 20.648C19.1991 20.8732 19.503 21 19.8201 21V20.6896C19.5859 20.6896 19.3613 20.596 19.1963 20.4295L18.9759 20.648ZM15.1717 16.8409L18.9763 20.6484L19.1958 20.4291L15.3912 16.6216L15.1717 16.8409ZM2.41484 15.7851C5.76747 19.5291 11.4597 19.9977 15.3786 16.8523L15.1843 16.6102C11.394 19.6524 5.88869 19.1993 2.64604 15.5781L2.41484 15.7851ZM2.77063 2.77291C-0.781528 6.32777 -0.937743 12.0412 2.41484 15.7851L2.64604 15.5781C-0.596673 11.9569 -0.445565 6.43061 2.99016 2.99228L2.77063 2.77291ZM15.7733 2.41685C12.0321 -0.938354 6.32285 -0.782003 2.77063 2.77291L2.99016 2.99228C6.42583 -0.446005 11.9477 -0.597212 15.5661 2.64789L15.7733 2.41685ZM16.8396 15.3901C19.9826 11.4683 19.5144 5.772 15.7733 2.41685L15.5661 2.64789C19.1846 5.89304 19.6374 11.4027 16.5974 15.196L16.8396 15.3901ZM9.48152 16.5761C5.57042 16.5761 2.39964 13.4031 2.39964 9.48869H2.0893C2.0893 13.5742 5.3988 16.8864 9.48152 16.8864V16.5761ZM14.4891 14.5003C13.161 15.8294 11.3597 16.5761 9.48152 16.5761V16.8864C11.4421 16.8864 13.3224 16.107 14.7087 14.7196L14.4891 14.5003ZM16.5634 9.48869C16.5634 11.3684 15.8173 13.1711 14.4891 14.5003L14.7087 14.7196C16.095 13.3323 16.8737 11.4507 16.8737 9.48869H16.5634ZM9.48152 2.40131C13.3926 2.40131 16.5634 5.57433 16.5634 9.48869H16.8737C16.8737 5.40315 13.5642 2.09097 9.48152 2.09097V2.40131ZM2.39964 9.48869C2.39964 5.57433 5.57042 2.40131 9.48152 2.40131V2.09097C5.3988 2.09097 2.0893 5.40315 2.0893 9.48869H2.39964Z" fill="#373630"/>
</svg>
